<svg xmlns="http://www.w3.org/2000/svg" width="53.253" height="67.73" viewBox="0 0 53.253 67.73">
  <g id="그룹_181878" data-name="그룹 181878" transform="translate(-127 -1763.27)">
    <g id="그룹_181875" data-name="그룹 181875" transform="translate(-0.439)">
      <path id="패스_156445" data-name="패스 156445" d="M47.754,8.236a12.883,12.883,0,0,1,1.6.186L49.291,8.4V3.416A1.214,1.214,0,0,0,48.076,2.2H17.016l.1.239,2.321,5.77Z" transform="translate(127.026 1765.483)" fill="#004a9c"/>
      <path id="패스_156446" data-name="패스 156446" d="M2.576,40.352h48.1a2.575,2.575,0,0,0,2.575-2.574V13.556a5.343,5.343,0,0,0-3.9-5.134,12.883,12.883,0,0,0-1.6-.186L19.433,8.212l-2.321-5.77L16.131,0H2.575A2.575,2.575,0,0,0,0,2.575v35.2A2.575,2.575,0,0,0,2.576,40.352Zm-2-5.751h52.1v1.921H.577Z" transform="translate(127.439 1763.27)" fill="#4d4e50"/>
    </g>
    <rect id="사각형_6049" data-name="사각형 6049" width="52.104" height="1.921" transform="translate(128 1797.04)" fill="#ccc"/>
  </g>
</svg>
