<svg xmlns="http://www.w3.org/2000/svg" width="52" height="69.012" viewBox="0 0 52 69.012">
  <g id="그룹_181877" data-name="그룹 181877" transform="translate(-230 -1761.988)">
    <g id="그룹_181873" data-name="그룹 181873" transform="translate(2.854)">
      <path id="패스_156447" data-name="패스 156447" d="M11.208,42.525h5.668V29.472a.613.613,0,0,1,.612-.612H29.946a.613.613,0,0,1,.611.612V42.525h5.668a.886.886,0,0,0,.884-.885V21.959L23.717,8.566,10.324,21.959V41.64A.885.885,0,0,0,11.208,42.525Z" transform="translate(229.302 1760.477)" fill="#004a9c"/>
      <path id="패스_156448" data-name="패스 156448" d="M37.109,21.959V41.64a.886.886,0,0,1-.884.885H30.557v1.924a.613.613,0,0,1-.611.612H17.488a.612.612,0,0,1-.433-.18.618.618,0,0,1-.179-.432V42.525H11.208a.885.885,0,0,1-.884-.885V21.959L7.379,24.9V41.64a3.83,3.83,0,0,0,3.829,3.829H36.225a3.83,3.83,0,0,0,3.829-3.829V24.9Z" transform="translate(229.26 1759.755)" fill="#4d4e50"/>
      <path id="패스_156449" data-name="패스 156449" d="M1.2,26.61l2.239,2.238L7.379,24.9l2.945-2.945L23.717,8.566,37.109,21.959,40.054,24.9,44,28.848l2.238-2.238a4.084,4.084,0,0,0,0-5.776L28.843,3.441l.006-.007L26.611,1.2a4.1,4.1,0,0,0-5.789,0L18.584,3.434l.007.007L1.2,20.834A4.084,4.084,0,0,0,1.2,26.61Z" transform="translate(229.146 1761.988)" fill="#4d4e50"/>
      <path id="패스_156450" data-name="패스 156450" d="M30.378,29.04a.613.613,0,0,0-.432-.18H17.488a.613.613,0,0,0-.612.612V44.449a.618.618,0,0,0,.179.432.612.612,0,0,0,.433.18H29.946a.613.613,0,0,0,.611-.612V29.472A.612.612,0,0,0,30.378,29.04Z" transform="translate(229.393 1759.597)" fill="#4d4e50"/>
    </g>
  </g>
</svg>
