<svg xmlns="http://www.w3.org/2000/svg" width="52" height="68.644" viewBox="0 0 52 68.644">
  <g id="그룹_181879" data-name="그룹 181879" transform="translate(-27 -1762.356)">
    <g id="그룹_181874" data-name="그룹 181874" transform="translate(-1.518)">
      <path id="패스_156441" data-name="패스 156441" d="M51.741,11.84,48.5,8.461a.537.537,0,0,1,.284-.81,3.408,3.408,0,0,0,1.361-.8,3.284,3.284,0,0,0,.123-4.7,3.282,3.282,0,0,0-4.7-.09A3.359,3.359,0,0,0,44.71,3.39a.538.538,0,0,1-.822.247L40.657.247l-.141-.1a.535.535,0,0,0-.741.01l-3.748,3.6a.5.5,0,0,1-.532-.362,3.394,3.394,0,0,0-2.789-2.351,1.318,1.318,0,0,0-.489-.006c-3.183.56-4,3.868-2.292,5.662A3.111,3.111,0,0,0,31.19,7.5a.5.5,0,0,1,.319.582L27.739,11.7a.534.534,0,0,0-.027.757l3.409,3.554.061.047.02.022a.536.536,0,0,0,.9-.274,3.629,3.629,0,0,1,2.964-2.6,3.375,3.375,0,0,1,.925.062,3.321,3.321,0,0,1,2.531,2.648,3.27,3.27,0,0,1,.021.927,3.619,3.619,0,0,1-2.73,2.841.538.538,0,0,0-.313.888l.02.022.044.064,3.4,3.564a.535.535,0,0,0,.758.007L43.5,20.626a.505.505,0,0,1,.57.345,3.1,3.1,0,0,0,.748,1.3c1.717,1.79,5.056,1.119,5.759-2.034a1.3,1.3,0,0,0,.017-.489,3.4,3.4,0,0,0-2.223-2.893.5.5,0,0,1-.337-.548l3.759-3.582a.539.539,0,0,0,.044-.742Z" transform="translate(28.518 1762.356)" fill="#004a9c"/>
      <path id="패스_156442" data-name="패스 156442" d="M28.571,27.6l-4.684-.021-.169.031a.53.53,0,0,0-.454.313.8.8,0,0,1,.047.261L23.3,33.543l-.3-.059a.474.474,0,0,1-.429-.009l-.092-.039a3.6,3.6,0,0,0-.488.037l-.042.006-.043-.007a2.786,2.786,0,0,0-.51-.064,3,3,0,0,0-2.935,2.67,3.4,3.4,0,0,0-.027.4,3.623,3.623,0,0,0,.457,1.7c.067.126.134.255.219.383a1.093,1.093,0,0,0,.274.281,3.436,3.436,0,0,0,2,.686,3.375,3.375,0,0,0,.5-.042l.043-.008.043.007c.135.023.243.044.341.055a2.5,2.5,0,0,0,.248-.111.485.485,0,0,1,.5.036l.234-.047-.009,5.443a.816.816,0,0,1-.028.2.527.527,0,0,0,.471.308l4.925,0,.075-.01h.03a.537.537,0,0,0,.426-.839,3.622,3.622,0,0,1,.18-3.936,3.279,3.279,0,0,1,.685-.625,3.315,3.315,0,0,1,3.662.009,3.318,3.318,0,0,1,.684.629,3.62,3.62,0,0,1,.156,3.937.539.539,0,0,0,.424.841H35l.076.011L40,45.414a.541.541,0,0,0,.533-.544l.021-5.225a.5.5,0,0,1,.642-.17,3.12,3.12,0,0,0,1.457.36c2.48,0,4.31-2.869,2.523-5.562a1.359,1.359,0,0,0-.341-.352,3.393,3.393,0,0,0-3.625-.4.507.507,0,0,1-.629-.138l.02-5.193a.533.533,0,0,0-.5-.543l-.17-.033-4.685,0a.536.536,0,0,1-.385-.766,3.437,3.437,0,0,0,.368-1.531A3.314,3.314,0,1,0,28.6,25.3a3.372,3.372,0,0,0,.364,1.535A.538.538,0,0,1,28.571,27.6Z" transform="translate(28.518 1759.808)" fill="#4d4e50"/>
      <path id="패스_156443" data-name="패스 156443" d="M.727,16.358c-1.8,2.683.016,5.564,2.495,5.574a3.108,3.108,0,0,0,1.459-.353.5.5,0,0,1,.641.174l0,5.225a.517.517,0,0,0,.037.185.774.774,0,0,1,.431-.152h0a.736.736,0,0,1,.182-.032l4.649.008a.279.279,0,0,0,.212-.262l-.027-.114L10.8,26.6l0-.012-.006-.016a3.649,3.649,0,0,1-.377-1.594h0V24.95a3.651,3.651,0,0,1,.16-1.017,3.5,3.5,0,0,1,3.345-2.58h.155a3.508,3.508,0,0,1,3.345,2.58,3.652,3.652,0,0,1,.158,1.018v.007a3.654,3.654,0,0,1-.379,1.616l-.011.029-.006.009-.027.113a.282.282,0,0,0,.213.263l4.649-.008a.744.744,0,0,1,.182.032h0a.779.779,0,0,1,.435.156l.029-.146.022-5.225a.505.505,0,0,1,.643-.17,3.122,3.122,0,0,0,1.456.36c2.48,0,4.31-2.869,2.524-5.562a1.4,1.4,0,0,0-.34-.35,3.393,3.393,0,0,0-3.627-.4.507.507,0,0,1-.629-.138l.021-5.193a.535.535,0,0,0-.5-.544l-.17-.032-4.683,0A.538.538,0,0,1,16.978,9a3.386,3.386,0,0,0,.37-1.532,3.314,3.314,0,1,0-6.627-.017,3.4,3.4,0,0,0,.364,1.535.537.537,0,0,1-.391.763l-4.686-.02-.169.031a.535.535,0,0,0-.507.542l0,5.193a.506.506,0,0,1-.63.134,3.4,3.4,0,0,0-3.629.381A1.355,1.355,0,0,0,.727,16.358Z" transform="translate(28.518 1761.959)" fill="#4d4e50"/>
      <path id="패스_156444" data-name="패스 156444" d="M5.577,39.07l.051.071.007,5.311a.271.271,0,0,0,.262.276l4.905-.009.077-.011h.048a.235.235,0,0,0,.174-.074.294.294,0,0,0,.071-.192l-.048-.164a3.649,3.649,0,0,1-.543-1.92,4.264,4.264,0,0,1,.713-2.3l.009-.014.01-.012a3.551,3.551,0,0,1,.74-.677l.007-.005.006,0a3.94,3.94,0,0,1,1.966-.591h.008a3.94,3.94,0,0,1,1.966.591l0,0,.008.006a3.551,3.551,0,0,1,.74.677l.011.013.009.013a4.259,4.259,0,0,1,.71,2.3,3.645,3.645,0,0,1-.542,1.921l-.047.163a.294.294,0,0,0,.071.192.233.233,0,0,0,.174.074h.048l.017,0,.06.008,4.9.009a.273.273,0,0,0,.262-.276l.007-4.8a2.7,2.7,0,0,1-.343.024h0a2.649,2.649,0,0,1-.5-.068,3.506,3.506,0,0,1-.524.044,3.958,3.958,0,0,1-2.226-.733l-.084-.051a1.655,1.655,0,0,1-.409-.421,4.65,4.65,0,0,1-.6-1.273c-.038-.132-.068-.265-.092-.4a3.848,3.848,0,0,1-.076-.716,3.629,3.629,0,0,1,1.212-2.718,3.433,3.433,0,0,1,2.286-.884v0a3.115,3.115,0,0,1,.572.068,4.111,4.111,0,0,1,.53-.041,2.528,2.528,0,0,1,.26.013l.009-4.729a.268.268,0,0,0-.232-.272l-.017,0h-.042l-.037-.015-.079-.015-4.707.008-.023,0a.805.805,0,0,1-.656-.725l-.013-.071a.791.791,0,0,1,.078-.334h0l.01-.027,0-.009a3.111,3.111,0,0,0,.331-1.4V24.9a3.17,3.17,0,0,0-.136-.868,2.974,2.974,0,0,0-2.831-2.192h-.154a2.841,2.841,0,0,0-1.685.556,3.073,3.073,0,0,0-1.145,1.636,3.607,3.607,0,0,0-.1.491,2.441,2.441,0,0,0-.033.374h0v.009a3.091,3.091,0,0,0,.332,1.4l.006.011,0,.013.007.016h0a.79.79,0,0,1,.077.332l-.013.064a.8.8,0,0,1-.655.73l-.022,0-4.707-.008-.039.007-.041.008L5.9,27.5H5.857a.269.269,0,0,0-.249.275l.009,5.289-.062.076a.787.787,0,0,1-.605.288.755.755,0,0,1-.355-.088,2.868,2.868,0,0,0-1.33-.326,3.472,3.472,0,0,0-2.018.7,1.024,1.024,0,0,0-.273.28A3.744,3.744,0,0,0,.3,36.078a3.018,3.018,0,0,0,2.96,3.066h.005a2.866,2.866,0,0,0,1.331-.326.762.762,0,0,1,.345-.086A.79.79,0,0,1,5.577,39.07Z" transform="translate(28.518 1759.873)" fill="#ccc"/>
    </g>
  </g>
</svg>
