<svg id="아트웍_58" data-name="아트웍 58" xmlns="http://www.w3.org/2000/svg" width="19.456" height="18.422" viewBox="0 0 19.456 18.422">
  <g id="그룹_28454" data-name="그룹 28454">
    <path id="패스_156068" data-name="패스 156068" d="M19.025,6.417l-6.134-.7L10.147.268a.487.487,0,0,0-.869,0L6.529,5.729.413,6.648a.487.487,0,0,0-.271.826L4.52,11.836l-.76,6.038a.487.487,0,0,0,.722.485l5.357-3.016L15.168,18.3a.487.487,0,0,0,.719-.49l-.805-6.1,4.241-4.476a.487.487,0,0,0-.3-.818Z" transform="translate(0)" fill="#004a9c"/>
  </g>
</svg>
